<svg xmlns="http://www.w3.org/2000/svg" width="1200" height="630" viewBox="0 0 1200 630" role="img" aria-labelledby="title desc">
  <title id="title">Kloppy came back</title>
  <desc id="desc">A retro paperclip desktop gremlin beside a local first product description.</desc>
  <defs>
    <linearGradient id="bg" x1="0" y1="0" x2="1" y2="1">
      <stop offset="0" stop-color="#060608"/>
      <stop offset="0.55" stop-color="#111936"/>
      <stop offset="1" stop-color="#341329"/>
    </linearGradient>
    <linearGradient id="wire" x1="0" y1="0" x2="1" y2="1">
      <stop offset="0" stop-color="#f2f5f7"/>
      <stop offset="0.58" stop-color="#c6cdd2"/>
      <stop offset="1" stop-color="#9aa4ab"/>
    </linearGradient>
    <pattern id="scan" width="5" height="5" patternUnits="userSpaceOnUse">
      <path d="M0 1h5" stroke="#fff" stroke-opacity=".04"/>
    </pattern>
  </defs>
  <rect width="1200" height="630" fill="url(#bg)"/>
  <rect width="1200" height="630" fill="url(#scan)"/>
  <rect x="35" y="35" width="1130" height="560" fill="none" stroke="#fff" stroke-width="7"/>
  <rect x="35" y="35" width="1130" height="50" fill="#293555" stroke="#fff" stroke-width="7"/>
  <text x="60" y="69" fill="#fff" font-family="Courier New, monospace" font-size="24" font-weight="700">kloppy.exe — returned employee</text>
  <g fill="#c9c9c9" stroke="#fff" stroke-width="3">
    <rect x="1050" y="49" width="28" height="24"/>
    <rect x="1087" y="49" width="28" height="24"/>
    <rect x="1124" y="49" width="28" height="24"/>
  </g>
  <g transform="translate(78 119) scale(2.05)">
    <ellipse cx="82" cy="197" rx="58" ry="7" fill="#000" fill-opacity=".62"/>
    <path d="M43 188Q47 176 51 169V61a31 31 0 0 1 62 0v97a22 22 0 0 1-44 0V74a13 13 0 0 1 26 0v69" fill="none" stroke="#000" stroke-width="18" stroke-linecap="round" stroke-linejoin="round"/>
    <path d="M43 188Q47 176 51 169V61a31 31 0 0 1 62 0v97a22 22 0 0 1-44 0V74a13 13 0 0 1 26 0v69" fill="none" stroke="url(#wire)" stroke-width="10" stroke-linecap="round" stroke-linejoin="round"/>
    <g transform="rotate(-3 82 102)">
      <rect x="53" y="72" width="62" height="58" rx="2" fill="#f6e2a2" stroke="#000" stroke-width="3"/>
      <path d="m62 88 16-6m11 0 16 6" stroke="#000" stroke-width="4" stroke-linecap="round"/>
      <ellipse cx="72" cy="98" rx="8" ry="10" fill="#fff" stroke="#000" stroke-width="3"/>
      <ellipse cx="95" cy="98" rx="8" ry="10" fill="#fff" stroke="#000" stroke-width="3"/>
      <circle cx="72" cy="101" r="3.5"/>
      <circle cx="95" cy="101" r="3.5"/>
      <path d="M72 124q10-6 21 0" fill="none" stroke="#000" stroke-width="4" stroke-linecap="round"/>
    </g>
  </g>
  <g transform="translate(452 155)">
    <rect x="0" y="0" width="675" height="72" fill="#d7ff38" stroke="#000" stroke-width="5" transform="rotate(-1 338 36)"/>
    <text x="24" y="52" fill="#060608" font-family="Arial Black, Impact, sans-serif" font-size="50" font-weight="900">KLOPPY CAME BACK.</text>
    <text x="3" y="142" fill="#fff" font-family="Arial Black, Impact, sans-serif" font-size="67" font-weight="900">UNFORTUNATELY.</text>
    <text x="4" y="222" fill="#ffcc66" font-family="Courier New, monospace" font-size="29" font-weight="700">A LOCAL FIRST DESKTOP GREMLIN</text>
    <text x="4" y="266" fill="#fff" font-family="Arial, sans-serif" font-size="28" font-weight="700">NOTES · REMINDERS · AI CHAT</text>
    <text x="4" y="306" fill="#fff" font-family="Arial, sans-serif" font-size="28" font-weight="700">FOLDER COMMENTARY</text>
    <rect x="0" y="345" width="420" height="62" fill="#ff5ea8" stroke="#fff" stroke-width="5"/>
    <text x="22" y="387" fill="#fff" font-family="Courier New, monospace" font-size="28" font-weight="700">DOWNLOAD FREE · v0.1.0</text>
  </g>
</svg>
